<?xml version="1.0" encoding="UTF-8" standalone="no"?>
<!-- Generator: Adobe Illustrator 17.1.0, SVG Export Plug-In . SVG Version: 6.00 Build 0)  -->

<svg
   xmlns:dc="http://purl.org/dc/elements/1.1/"
   xmlns:cc="http://creativecommons.org/ns#"
   xmlns:rdf="http://www.w3.org/1999/02/22-rdf-syntax-ns#"
   xmlns:svg="http://www.w3.org/2000/svg"
   xmlns="http://www.w3.org/2000/svg"
   xmlns:sodipodi="http://sodipodi.sourceforge.net/DTD/sodipodi-0.dtd"
   xmlns:inkscape="http://www.inkscape.org/namespaces/inkscape"
   version="1.1"
   id="Facebook"
   x="0px"
   y="0px"
   viewBox="0 0 70 70"
   enable-background="new 0 0 128 128"
   xml:space="preserve"
   sodipodi:docname="Facebook.svg"
   width="70"
   height="70"
   inkscape:version="0.92.1 r15371"><metadata
     id="metadata4494"><rdf:RDF><cc:Work
         rdf:about=""><dc:format>image/svg+xml</dc:format><dc:type
           rdf:resource="http://purl.org/dc/dcmitype/StillImage" /><dc:title></dc:title></cc:Work></rdf:RDF></metadata><defs
     id="defs4492" /><sodipodi:namedview
     pagecolor="#ffffff"
     bordercolor="#666666"
     borderopacity="1"
     objecttolerance="10"
     gridtolerance="10"
     guidetolerance="10"
     inkscape:pageopacity="0"
     inkscape:pageshadow="2"
     inkscape:window-width="1680"
     inkscape:window-height="988"
     id="namedview4490"
     showgrid="false"
     fit-margin-top="0"
     fit-margin-left="0"
     fit-margin-right="0"
     fit-margin-bottom="0"
     inkscape:zoom="6.4140625"
     inkscape:cx="37.260658"
     inkscape:cy="24.476249"
     inkscape:window-x="1358"
     inkscape:window-y="-8"
     inkscape:window-maximized="1"
     inkscape:current-layer="g4487" /><g
     id="g4487"
     transform="translate(-26.739342,-18.476249)"><path
       inkscape:connector-curvature="0"
       style="fill:#ffffff"
       id="facebook-facebook"
       d="m 92.876042,18.476249 h -62.2729 c -2.1343,0 -3.8638,1.729 -3.8638,3.8638 v 62.2729 c 0,2.1338 1.7295,3.8633 3.8638,3.8633 h 33.5249 v -27.1074 h -9.1221 v -10.565 h 9.1221 v -7.790501 c 0,-9.0415 5.5224,-13.9648 13.5888,-13.9648 3.8623,0 7.1827,0.2876 8.1504,0.4165 v 9.4487 l -5.5927,0.0024 c -4.3877,0 -5.2364,2.0845 -5.2364,5.1431 v 6.744601 h 10.461 l -1.3623,10.565 h -9.0987 v 27.1074 h 17.8379 c 2.1338,0 3.8633,-1.7295 3.8633,-3.8633 v -62.2729 c 0,-2.1348 -1.7295,-3.8638 -3.8633,-3.8638 z" /></g></svg>