<?xml version="1.0" encoding="UTF-8" standalone="no"?>
<!-- Generator: Adobe Illustrator 17.1.0, SVG Export Plug-In . SVG Version: 6.00 Build 0)  -->

<svg
   xmlns:dc="http://purl.org/dc/elements/1.1/"
   xmlns:cc="http://creativecommons.org/ns#"
   xmlns:rdf="http://www.w3.org/1999/02/22-rdf-syntax-ns#"
   xmlns:svg="http://www.w3.org/2000/svg"
   xmlns="http://www.w3.org/2000/svg"
   xmlns:sodipodi="http://sodipodi.sourceforge.net/DTD/sodipodi-0.dtd"
   xmlns:inkscape="http://www.inkscape.org/namespaces/inkscape"
   version="1.1"
   id="Instagram"
   x="0px"
   y="0px"
   viewBox="0 0 71.679604 71.679604"
   enable-background="new 0 0 128 128"
   xml:space="preserve"
   sodipodi:docname="Instagram.svg"
   width="71.679604"
   height="71.679604"
   inkscape:version="0.92.1 r15371"><metadata
     id="metadata4520"><rdf:RDF><cc:Work
         rdf:about=""><dc:format>image/svg+xml</dc:format><dc:type
           rdf:resource="http://purl.org/dc/dcmitype/StillImage" /><dc:title></dc:title></cc:Work></rdf:RDF></metadata><defs
     id="defs4518" /><sodipodi:namedview
     pagecolor="#ffffff"
     bordercolor="#666666"
     borderopacity="1"
     objecttolerance="10"
     gridtolerance="10"
     guidetolerance="10"
     inkscape:pageopacity="0"
     inkscape:pageshadow="2"
     inkscape:window-width="716"
     inkscape:window-height="766"
     id="namedview4516"
     showgrid="false"
     fit-margin-top="0"
     fit-margin-left="0"
     fit-margin-right="0"
     fit-margin-bottom="0"
     inkscape:zoom="1.84375"
     inkscape:cx="36.924546"
     inkscape:cy="21.195732"
     inkscape:window-x="1593"
     inkscape:window-y="251"
     inkscape:window-maximized="0"
     inkscape:current-layer="g4513" /><g
     id="g4513"
     transform="translate(-27.075454,-13.516132)"><path
       inkscape:connector-curvature="0"
       style="clip-rule:evenodd;fill:#ffffff;fill-rule:evenodd"
       id="instagram-instagram"
       d="m 90.486554,43.838832 h -6.2402 c 0.4541,1.7651 0.7236,3.6089 0.7236,5.5156 0,12.1831 -9.875,22.0562 -22.0552,22.0562 -12.1797,0 -22.0542,-9.8731 -22.0542,-22.0562 0,-1.9067 0.2695,-3.7505 0.7246,-5.5156 h -6.2407 v 30.3286 c 0,1.5205 1.2349,2.7549 2.7598,2.7549 h 49.6215 c 1.5254,0 2.7608,-1.2344 2.7608,-2.7549 z m 0,-19.2969 c 0,-1.5219 -1.2354,-2.7568 -2.7608,-2.7568 h -8.2685 c -1.5225,0 -2.7568,1.2349 -2.7568,2.7568 v 8.272 c 0,1.522 1.2343,2.7568 2.7568,2.7568 h 8.2685 c 1.5254,0 2.7608,-1.2348 2.7608,-2.7568 z m -27.5718,11.0288 c -7.6133,0 -13.7847,6.1705 -13.7847,13.7837 0,7.6128 6.1714,13.7867 13.7847,13.7867 7.6138,0 13.7857,-6.1739 13.7857,-13.7867 0,-7.6132 -6.1719,-13.7837 -13.7857,-13.7837 m 27.5718,49.625 h -55.1421 c -4.5664,0 -8.269,-3.7041 -8.269,-8.2734 v -55.1372 c 0,-4.5669 3.7026,-8.269 8.269,-8.269 h 55.1421 c 4.5674,0 8.2685,3.7021 8.2685,8.269 v 55.1372 c 0,4.5693 -3.7011,8.2734 -8.2685,8.2734" /></g></svg>