<?xml version="1.0" encoding="UTF-8" standalone="no"?>
<!-- Generator: Adobe Illustrator 17.1.0, SVG Export Plug-In . SVG Version: 6.00 Build 0)  -->

<svg
   xmlns:dc="http://purl.org/dc/elements/1.1/"
   xmlns:cc="http://creativecommons.org/ns#"
   xmlns:rdf="http://www.w3.org/1999/02/22-rdf-syntax-ns#"
   xmlns:svg="http://www.w3.org/2000/svg"
   xmlns="http://www.w3.org/2000/svg"
   xmlns:sodipodi="http://sodipodi.sourceforge.net/DTD/sodipodi-0.dtd"
   xmlns:inkscape="http://www.inkscape.org/namespaces/inkscape"
   version="1.1"
   id="Twitter"
   x="0px"
   y="0px"
   viewBox="0 0 71.679604 58.251999"
   enable-background="new 0 0 128 128"
   xml:space="preserve"
   sodipodi:docname="Twitter.svg"
   width="71.679604"
   height="58.251999"
   inkscape:version="0.92.1 r15371"><metadata
     id="metadata5089"><rdf:RDF><cc:Work
         rdf:about=""><dc:format>image/svg+xml</dc:format><dc:type
           rdf:resource="http://purl.org/dc/dcmitype/StillImage" /><dc:title></dc:title></cc:Work></rdf:RDF></metadata><defs
     id="defs5087" /><sodipodi:namedview
     pagecolor="#ffffff"
     bordercolor="#666666"
     borderopacity="1"
     objecttolerance="10"
     gridtolerance="10"
     guidetolerance="10"
     inkscape:pageopacity="0"
     inkscape:pageshadow="2"
     inkscape:window-width="907"
     inkscape:window-height="742"
     id="namedview5085"
     showgrid="false"
     fit-margin-top="0"
     fit-margin-left="0"
     fit-margin-right="0"
     fit-margin-bottom="0"
     inkscape:zoom="1.84375"
     inkscape:cx="40.178783"
     inkscape:cy="24.244642"
     inkscape:window-x="1507"
     inkscape:window-y="334"
     inkscape:window-maximized="0"
     inkscape:current-layer="g5082" /><g
     id="g5082"
     transform="translate(-23.821217,-29.992645)"><path
       inkscape:connector-curvature="0"
       style="fill:#ffffff"
       id="twitter-twitter"
       d="m 95.500822,36.888145 c -2.6367,1.17 -5.4707,1.96 -8.4462,2.3155 3.0351,-1.8204 5.3681,-4.7022 6.4658,-8.1363 -2.8408,1.6851 -5.9883,2.9097 -9.3379,3.5689 -2.6826,-2.8584 -6.5049,-4.6436 -10.7344,-4.6436 -8.123,0 -14.7065,6.584 -14.7065,14.7051 0,1.1533 0.1303,2.2754 0.3808,3.3516 -12.2221,-0.6133 -23.058105,-6.4678 -30.311005,-15.3648 -1.2661,2.1714 -1.9912,4.6978 -1.9912,7.3931 0,5.1015 2.5962,9.6025 6.542,12.2397 -2.4107,-0.0757 -4.6783,-0.7378 -6.6607,-1.8393 -0.0014,0.0615 -0.0014,0.123 -0.0014,0.1855 0,7.125 5.0693,13.0684 11.7968,14.4199 -1.2343,0.336 -2.5337,0.5157 -3.8745,0.5157 -0.9477,0 -1.8691,-0.0928 -2.7671,-0.2637 1.8716,5.841797 7.3023,10.093697 13.7378,10.211897 -5.0332,3.9453 -11.374,6.2959 -18.2646,6.2959 -1.187,0 -2.357,-0.0693 -3.5073,-0.2051 6.5083,4.1729 14.2377,6.6065 22.542905,6.6065 27.0498,0 41.8418,-22.408197 41.8418,-41.841797 0,-0.6377 -0.0146,-1.2715 -0.0429,-1.9024 2.873,-2.0732 5.3671,-4.663 7.3378,-7.6123 z" /></g></svg>