<?xml version="1.0" encoding="UTF-8" standalone="no"?>
<svg
   xmlns:dc="http://purl.org/dc/elements/1.1/"
   xmlns:cc="http://creativecommons.org/ns#"
   xmlns:rdf="http://www.w3.org/1999/02/22-rdf-syntax-ns#"
   xmlns:svg="http://www.w3.org/2000/svg"
   xmlns="http://www.w3.org/2000/svg"
   xmlns:sodipodi="http://sodipodi.sourceforge.net/DTD/sodipodi-0.dtd"
   xmlns:inkscape="http://www.inkscape.org/namespaces/inkscape"
   viewBox="0 0 391.48463 512.0001"
   version="1.1"
   x="0px"
   y="0px"
   id="svg4493"
   sodipodi:docname="cancel.svg"
   inkscape:version="0.92.1 r15371"
   width="391.48462"
   height="512.00012">
  <metadata
     id="metadata4499">
    <rdf:RDF>
      <cc:Work
         rdf:about="">
        <dc:format>image/svg+xml</dc:format>
        <dc:type
           rdf:resource="http://purl.org/dc/dcmitype/StillImage" />
        <dc:title></dc:title>
      </cc:Work>
    </rdf:RDF>
  </metadata>
  <defs
     id="defs4497" />
  <sodipodi:namedview
     pagecolor="#ffffff"
     bordercolor="#666666"
     borderopacity="1"
     objecttolerance="10"
     gridtolerance="10"
     guidetolerance="10"
     inkscape:pageopacity="0"
     inkscape:pageshadow="2"
     inkscape:window-width="1680"
     inkscape:window-height="988"
     id="namedview4495"
     showgrid="false"
     inkscape:zoom="1.2828125"
     inkscape:cx="69.067508"
     inkscape:cy="192.00003"
     inkscape:window-x="1358"
     inkscape:window-y="-8"
     inkscape:window-maximized="1"
     inkscape:current-layer="svg4493"
     fit-margin-top="0"
     fit-margin-left="0"
     fit-margin-right="0"
     fit-margin-bottom="0" />
  <g
     transform="translate(-151.47216,-152.15552)"
     id="g4487"
     style="fill:#ffffff;fill-opacity:1;stroke:none;stroke-opacity:1">
    <path
       style="color:#000000;font-style:normal;font-variant:normal;font-weight:normal;font-stretch:normal;font-size:medium;line-height:normal;font-family:sans-serif;text-indent:0;text-align:start;text-decoration:none;text-decoration-line:none;text-decoration-style:solid;text-decoration-color:#000000;letter-spacing:normal;word-spacing:normal;text-transform:none;writing-mode:lr-tb;direction:ltr;baseline-shift:baseline;text-anchor:start;white-space:normal;clip-rule:nonzero;display:inline;overflow:visible;visibility:visible;opacity:1;isolation:auto;mix-blend-mode:normal;color-interpolation:sRGB;color-interpolation-filters:linearRGB;solid-color:#000000;solid-opacity:1;fill:#ffffff;fill-opacity:1;fill-rule:nonzero;stroke:none;stroke-width:15.35860538;stroke-linecap:round;stroke-linejoin:round;stroke-miterlimit:4;stroke-dasharray:none;stroke-dashoffset:0;stroke-opacity:1;color-rendering:auto;image-rendering:auto;shape-rendering:auto;text-rendering:auto;enable-background:accumulate"
       d="m 166.30419,152.15556 c -8.68325,0.0188 -14.83203,6.68228 -14.83203,17.69141 v 379.52539 c 0,14.67885 10.93161,31.86399 24.22656,38.08594 l 159.00976,74.41601 c 13.29496,6.22195 24.22656,-0.7313 24.22656,-15.41015 v -64.42969 h 69.10352 c 14.41188,0 26.25586,-11.84045 26.25586,-26.25195 v -92.3711 a 7.6800706,7.6800706 0 1 0 -15.35938,0 v 92.3711 c 0,6.16745 -4.72562,10.89258 -10.89648,10.89258 H 359.30614 V 263.51689 c 0,-14.08139 -8.58942,-27.58184 -21.34375,-33.55078 L 204.52293,167.51494 h 223.51563 c 6.17086,0 10.89648,4.72514 10.89648,10.89258 v 95.56445 a 7.6800706,7.6800706 0 1 0 15.35938,0 v -95.56445 c 0,-14.4115 -11.84398,-26.25196 -26.25586,-26.25196 H 178.6245 c -2.29606,0 -4.52337,0.30895 -6.64063,0.86329 -1.98009,-0.58456 -3.88433,-0.86718 -5.67968,-0.86329 z m 5.59375,17.45118 c 0.34904,0.005 0.7133,0.0457 1.08398,0.10546 l 158.4707,74.16407 c 5.99359,2.80495 12.49609,13.02576 12.49609,19.64062 v 310.83789 a 7.6800706,7.6800706 0 0 0 0.36914,2.33985 v 62.92968 c 0,6.01744 -4.15924,8.66195 -9.60937,6.11133 L 175.69872,571.31963 c -5.45013,-2.55062 -9.60938,-9.08803 -9.60938,-15.10547 V 176.68877 c 0,-4.51308 2.3396,-7.1314 5.8086,-7.08203 z M 474.11473,299.0208 a 7.50075,7.50075 0 0 0 -0.74609,0.0586 7.50075,7.50075 0 0 0 -0.73829,0.13281 7.50075,7.50075 0 0 0 -1.41796,0.48438 7.50075,7.50075 0 0 0 -3.30665,2.95117 7.50075,7.50075 0 0 0 -1.06835,3.55469 7.50075,7.50075 0 0 0 2.04687,5.4707 7.50075,7.50075 0 0 0 0.0684,0.0723 l 48.54297,48.54297 H 392.04836 a 7.50075,7.50075 0 0 0 -0.75,0.0488 7.50075,7.50075 0 0 0 -0.73828,0.1211 7.50075,7.50075 0 0 0 -2.0957,0.79883 7.50075,7.50075 0 0 0 -0.63281,0.40039 7.50075,7.50075 0 0 0 -0.58985,0.46289 7.50075,7.50075 0 0 0 -1.02929,1.08984 7.50075,7.50075 0 0 0 -0.79102,1.27149 7.50075,7.50075 0 0 0 -0.67578,2.13671 7.50075,7.50075 0 0 0 -0.0156,2.24219 7.50075,7.50075 0 0 0 0.14454,0.73438 7.50075,7.50075 0 0 0 0.21679,0.71875 7.50075,7.50075 0 0 0 0.28711,0.6914 7.50075,7.50075 0 0 0 0.77344,1.28321 7.50075,7.50075 0 0 0 0.48047,0.57617 7.50075,7.50075 0 0 0 1.74609,1.40429 7.50075,7.50075 0 0 0 2.82227,0.95899 7.50075,7.50075 0 0 0 0.84765,0.0605 h 125.44727 l -48.54297,48.54296 a 7.50075,7.50075 0 0 0 -0.93164,1.17188 7.50075,7.50075 0 0 0 -0.37305,0.65039 7.50075,7.50075 0 0 0 -0.79883,2.87109 7.50075,7.50075 0 0 0 0.043,1.49805 7.50075,7.50075 0 0 0 2.36914,4.56445 7.50075,7.50075 0 0 0 0.57813,0.47852 7.50075,7.50075 0 0 0 4.17578,1.48633 7.50075,7.50075 0 0 0 0.75,-0.006 7.50075,7.50075 0 0 0 3.53711,-1.125 7.50075,7.50075 0 0 0 1.25781,-0.98438 l 61.27539,-61.27734 a 7.50075,7.50075 0 0 0 0.4961,-0.5625 7.50075,7.50075 0 0 0 0.81054,-1.25977 7.50075,7.50075 0 0 0 0.30664,-0.68359 7.50075,7.50075 0 0 0 0.23633,-0.71289 7.50075,7.50075 0 0 0 0.26563,-1.95508 7.50075,7.50075 0 0 0 0.002,-0.084 7.50075,7.50075 0 0 0 0.004,-0.18555 7.50075,7.50075 0 0 0 -0.006,-0.0801 7.50075,7.50075 0 0 0 -0.004,-0.42578 7.50075,7.50075 0 0 0 -0.082,-0.74609 7.50075,7.50075 0 0 0 -0.1543,-0.73242 7.50075,7.50075 0 0 0 -0.52539,-1.40235 7.50075,7.50075 0 0 0 -0.79297,-1.27148 7.50075,7.50075 0 0 0 -0.55664,-0.64063 l -61.27543,-61.27713 a 7.50075,7.50075 0 0 0 -0.56445,-0.4961 7.50075,7.50075 0 0 0 -2.6543,-1.35351 7.50075,7.50075 0 0 0 -2.22656,-0.26953 z M 308.57176,418.34697 c -7.03297,0 -12.61774,4.56609 -15.94531,9.94922 -3.32757,5.38313 -5.04688,12.03609 -5.04688,19.26562 0,7.22954 1.71931,13.8825 5.04688,19.26563 3.32757,5.38313 8.91234,9.94922 15.94531,9.94922 7.03298,0 12.61774,-4.56609 15.94531,-9.94922 3.32757,-5.38313 5.04493,-12.03609 5.04493,-19.26563 0,-7.22953 -1.71736,-13.88249 -5.04493,-19.26562 -3.32757,-5.38313 -8.91233,-9.94922 -15.94531,-9.94922 z m 0,15.35742 c 0.31905,0 1.39044,0.2549 2.88086,2.66602 1.49043,2.41112 2.75195,6.52731 2.75195,11.1914 0,4.6641 -1.26152,8.77834 -2.75195,11.18946 -1.49042,2.41112 -2.56181,2.66601 -2.88086,2.66601 -0.31904,0 -1.39043,-0.25489 -2.88086,-2.66601 -1.49042,-2.41112 -2.75195,-6.52536 -2.75195,-11.18946 0,-4.66409 1.26153,-8.78028 2.75195,-11.1914 1.49043,-2.41112 2.56182,-2.66602 2.88086,-2.66602 z"
       id="path4485"
       inkscape:connector-curvature="0" />
  </g>
</svg>
