<?xml version="1.0" encoding="UTF-8" standalone="no"?>
<svg
   xmlns:dc="http://purl.org/dc/elements/1.1/"
   xmlns:cc="http://creativecommons.org/ns#"
   xmlns:rdf="http://www.w3.org/1999/02/22-rdf-syntax-ns#"
   xmlns:svg="http://www.w3.org/2000/svg"
   xmlns="http://www.w3.org/2000/svg"
   xmlns:sodipodi="http://sodipodi.sourceforge.net/DTD/sodipodi-0.dtd"
   xmlns:inkscape="http://www.inkscape.org/namespaces/inkscape"
   version="1.1"
   x="0px"
   y="0px"
   viewBox="0 0 65.999779 90.000001"
   enable-background="new 0 0 100 100"
   xml:space="preserve"
   id="svg4505"
   sodipodi:docname="pickprice.svg"
   inkscape:version="0.92.1 r15371"
   width="65.999779"
   height="90"><metadata
     id="metadata4511"><rdf:RDF><cc:Work
         rdf:about=""><dc:format>image/svg+xml</dc:format><dc:type
           rdf:resource="http://purl.org/dc/dcmitype/StillImage" /><dc:title></dc:title></cc:Work></rdf:RDF></metadata><defs
     id="defs4509" /><sodipodi:namedview
     pagecolor="#ffffff"
     bordercolor="#666666"
     borderopacity="1"
     objecttolerance="10"
     gridtolerance="10"
     guidetolerance="10"
     inkscape:pageopacity="0"
     inkscape:pageshadow="2"
     inkscape:window-width="1680"
     inkscape:window-height="988"
     id="namedview4507"
     showgrid="false"
     inkscape:zoom="6.568"
     inkscape:cx="32.99978"
     inkscape:cy="30.078354"
     inkscape:window-x="1358"
     inkscape:window-y="-8"
     inkscape:window-maximized="1"
     inkscape:current-layer="svg4505"
     fit-margin-top="0"
     fit-margin-left="0"
     fit-margin-right="0"
     fit-margin-bottom="0" /><path
     d="m 64.52178,90 h -35.955 c -0.816,0 -1.478,-0.664 -1.478,-1.483 V 38.818 c 0,-0.466 0.218,-0.904 0.589,-1.185 l 17.978,-13.599 c 0.526,-0.398 1.251,-0.398 1.778,0 l 17.978,13.599 c 0.37,0.281 0.588,0.72 0.588,1.185 v 49.698 c 0,0.82 -0.661,1.484 -1.478,1.484 z m -34.477,-2.967 h 33 V 39.559 l -16.5,-12.481 -16.5,12.481 z"
     id="path4485"
     style="fill:#ffffff;fill-opacity:1"
     inkscape:connector-curvature="0" /><path
     d="m 46.54478,45.785 c -3.123,0 -5.664,-2.551 -5.664,-5.687 0,-3.136 2.541,-5.687 5.664,-5.687 3.124,0 5.665,2.551 5.665,5.687 0,3.136 -2.542,5.687 -5.665,5.687 z m 0,-8.406 c -1.494,0 -2.709,1.221 -2.709,2.72 0,1.499 1.215,2.72 2.709,2.72 1.494,0 2.709,-1.221 2.709,-2.72 0,-1.499 -1.215,-2.72 -2.709,-2.72 z"
     id="path4487"
     style="fill:#ffffff;fill-opacity:1"
     inkscape:connector-curvature="0" /><path
     d="m 28.56678,87.362 c -0.126,0 -0.253,-0.017 -0.377,-0.05 l -18.039,-4.779 C 9.7597803,82.429 9.4287803,82.17 9.2337803,81.815 c -0.195,-0.355 -0.237,-0.774 -0.115,-1.161 L 24.14978,32.676 c 0.137,-0.437 0.466,-0.785 0.893,-0.945 l 20.883,-7.823 c 0.689,-0.259 1.459,0.03 1.812,0.677 0.354,0.646 0.18,1.454 -0.406,1.898 l -17.287,13.076 v 46.32 c 0,0.46 -0.213,0.895 -0.576,1.176 -0.261,0.201 -0.579,0.307 -0.902,0.307 z m -16.164,-7.301 14.687,3.893 V 38.818 c 0,-0.466 0.218,-0.904 0.589,-1.185 l 9.752,-7.377 -10.678,4 z"
     id="path4489"
     style="fill:#ffffff;fill-opacity:1"
     inkscape:connector-curvature="0" /><path
     d="m 11.84778,78.536 c -0.247,0 -0.492,-0.062 -0.713,-0.185 L 0.76478035,72.619 c -0.711,-0.393 -0.973,-1.289 -0.586,-2.006 L 23.25178,27.871 c 0.221,-0.41 0.621,-0.691 1.08,-0.76 l 21.928,-3.309 c 0.67,-0.1 1.321,0.268 1.583,0.895 0.262,0.626 0.065,1.35 -0.475,1.759 -0.114,0.085 -0.274,0.181 -0.408,0.231 l -20.206,7.569 -13.496,43.24 c -0.132,0.425 -0.448,0.768 -0.859,0.934 -0.178,0.071 -0.365,0.106 -0.551,0.106 z m -8.3709997,-7.806 7.5009997,4.147 13.172,-42.2 c 0.137,-0.437 0.466,-0.786 0.894,-0.946 l 7.717,-2.891 -7.262,1.096 z"
     id="path4491"
     style="fill:#ffffff;fill-opacity:1"
     inkscape:connector-curvature="0" /><rect
     x="36.447781"
     y="55.216999"
     width="20.194"
     height="2.9679999"
     id="rect4493"
     style="fill:#ffffff;fill-opacity:1" /><rect
     x="36.447781"
     y="64.614998"
     width="20.194"
     height="2.967"
     id="rect4495"
     style="fill:#ffffff;fill-opacity:1" /><rect
     x="36.447781"
     y="73.351997"
     width="20.194"
     height="2.967"
     id="rect4497"
     style="fill:#ffffff;fill-opacity:1" /><path
     d="m 46.44278,26.781 c -0.448,0 -0.873,-0.205 -1.154,-0.557 -0.229,-0.287 -5.597,-7.111 -5.597,-14.857 0,-5.621 0.802,-11.367 6.751,-11.367 5.949,0 6.751,5.746 6.751,11.367 0,7.746 -5.369,14.57 -5.598,14.857 -0.28,0.352 -0.704,0.557 -1.153,0.557 z m 0,-23.814 c -1.512,0 -3.796,0 -3.796,8.4 0,4.615 2.333,9.022 3.796,11.332 1.463,-2.31 3.796,-6.717 3.796,-11.332 0,-8.4 -2.284,-8.4 -3.796,-8.4 z"
     id="path4499"
     style="fill:#ffffff;fill-opacity:1"
     inkscape:connector-curvature="0" /></svg>