<?xml version="1.0" encoding="UTF-8" standalone="no"?>
<svg
   xmlns:dc="http://purl.org/dc/elements/1.1/"
   xmlns:cc="http://creativecommons.org/ns#"
   xmlns:rdf="http://www.w3.org/1999/02/22-rdf-syntax-ns#"
   xmlns:svg="http://www.w3.org/2000/svg"
   xmlns="http://www.w3.org/2000/svg"
   xmlns:sodipodi="http://sodipodi.sourceforge.net/DTD/sodipodi-0.dtd"
   xmlns:inkscape="http://www.inkscape.org/namespaces/inkscape"
   version="1.1"
   x="0px"
   y="0px"
   viewBox="0 0 90 49.166"
   enable-background="new 0 0 100 100"
   xml:space="preserve"
   id="svg4517"
   sodipodi:docname="watchanywhere.svg"
   inkscape:version="0.92.1 r15371"
   width="90"
   height="49.166"><metadata
     id="metadata4523"><rdf:RDF><cc:Work
         rdf:about=""><dc:format>image/svg+xml</dc:format><dc:type
           rdf:resource="http://purl.org/dc/dcmitype/StillImage" /><dc:title></dc:title></cc:Work></rdf:RDF></metadata><defs
     id="defs4521" /><sodipodi:namedview
     pagecolor="#ffffff"
     bordercolor="#666666"
     borderopacity="1"
     objecttolerance="10"
     gridtolerance="10"
     guidetolerance="10"
     inkscape:pageopacity="0"
     inkscape:pageshadow="2"
     inkscape:window-width="1680"
     inkscape:window-height="988"
     id="namedview4519"
     showgrid="false"
     inkscape:zoom="1.888"
     inkscape:cx="-41.069915"
     inkscape:cy="12.083"
     inkscape:window-x="1358"
     inkscape:window-y="-8"
     inkscape:window-maximized="1"
     inkscape:current-layer="svg4517"
     fit-margin-top="0"
     fit-margin-left="0"
     fit-margin-right="0"
     fit-margin-bottom="0" /><g
     id="g4505"
     style="fill:#ffffff;fill-opacity:1"
     transform="translate(-5,-25.417)"><path
       d="M 83.236,25.417 H 24.542 c -0.787,0 -1.424,0.638 -1.424,1.425 v 9.177 h 1.68 v -8.977 h 58.188 v 15.224 h 1.677 V 26.841 c -0.002,-0.787 -0.64,-1.424 -1.427,-1.424 z"
       id="path4501"
       style="fill:#ffffff;fill-opacity:1"
       inkscape:connector-curvature="0" /><path
       d="M 59.588,67.042 V 65.876 H 72.822 V 62.694 H 34.965 v 3.182 h 15.03 v 1.166 0.638 0.808 c 0,0.157 -0.127,0.285 -0.285,0.285 H 49.237 48.711 41.21 c -0.157,0 -0.285,0.128 -0.285,0.285 v 1.211 c 0,0.157 0.128,0.285 0.285,0.285 h 27.164 c 0.156,0 0.284,-0.128 0.284,-0.285 v -1.211 c 0,-0.157 -0.128,-0.285 -0.284,-0.285 h -7.503 -0.086 -0.913 c -0.157,0 -0.284,-0.128 -0.284,-0.285 v -0.595 z"
       id="path4503"
       style="fill:#ffffff;fill-opacity:1"
       inkscape:connector-curvature="0" /></g><path
     d="M 82.048,18.374 H 70.881 c -0.847,0 -1.533,0.618 -1.533,1.379 v 23.651 c 0,0.762 0.687,1.38 1.533,1.38 h 6.597 V 41.603 H 71.026 V 20.051 h 10.879 v 10.33 h 1.678 V 19.753 c -0.001,-0.762 -0.687,-1.379 -1.535,-1.379 z"
     id="path4507"
     style="fill:#ffffff;fill-opacity:1"
     inkscape:connector-curvature="0" /><path
     d="M 27.068,12.126 H 1.425 C 0.638,12.126 0,12.764 0,13.551 v 34.191 c 0,0.787 0.638,1.424 1.425,1.424 h 25.644 c 0.787,0 1.424,-0.637 1.424,-1.424 V 13.551 c 0,-0.787 -0.638,-1.425 -1.425,-1.425 z M 26.869,45.035 H 1.625 V 13.807 h 25.244 z"
     id="path4509"
     style="fill:#ffffff;fill-opacity:1"
     inkscape:connector-curvature="0" /><path
     d="m 90,38.451 v -1.273 h -0.369 v -1.613 c 0,-0.572 -0.517,-1.037 -1.152,-1.037 h -1.771 v -2.71 h -4.855 v 2.71 h -1.771 c -0.636,0 -1.152,0.465 -1.152,1.037 v 10.07 c 0,0.573 0.517,1.037 1.152,1.037 h 1.771 v 2.494 h 4.855 v -2.494 h 1.771 c 0.636,0 1.152,-0.464 1.152,-1.037 v -2.217 h 0.238 v -2.763 h -0.238 v -2.204 z m -1.649,6.831 h -8.142 v -9.58 h 8.142 z"
     id="path4511"
     style="fill:#ffffff;fill-opacity:1"
     inkscape:connector-curvature="0" /></svg>